<?xml version="1.0" encoding="UTF-8"?>
<!DOCTYPE svg PUBLIC "-//W3C//DTD SVG 1.1//EN" "http://www.w3.org/Graphics/SVG/1.1/DTD/svg11.dtd">
<!-- Creator: CorelDRAW -->
<svg xmlns="http://www.w3.org/2000/svg" xml:space="preserve" width="2048px" height="2048px" style="shape-rendering:geometricPrecision; text-rendering:geometricPrecision; image-rendering:optimizeQuality; fill-rule:evenodd; clip-rule:evenodd"
viewBox="0 0 2048 2048"
 xmlns:xlink="http://www.w3.org/1999/xlink">
 <defs>
  <style type="text/css">
   <![CDATA[
    .fil4 {fill:none}
    .fil3 {fill:#282929}
    .fil1 {fill:#2F2F2F}
    .fil2 {fill:#FBFBFC}
    .fil0 {fill:#2D2D2D;fill-rule:nonzero}
   ]]>
  </style>
 </defs>
 <g id="Layer_x0020_1">
  <metadata id="CorelCorpID_0Corel-Layer"/>
  <g id="_459940664">
   <polygon id="_459941360" class="fil0" points="592.898,313.706 592.423,250.069 622.547,250.069 1424,250.069 1456,250.069 1456,282.07 1456,1498.07 1456,1530.07 1424,1530.07 1183.1,1530.07 1183.1,1466.07 1392,1466.07 1392,311.259 "/>
   <polygon id="_459941192" class="fil1" points="1201.56,514.308 1201.56,1798.29 592,1521.51 592,249.709 "/>
   <polygon id="_459941024" class="fil2" points="1146.2,989.032 1093.61,989.032 1093.61,1199.61 1146.2,1199.61 1146.2,1225.71 1093.61,1225.71 1067.31,1225.71 1067.31,1199.41 1067.31,988.828 1067.31,962.531 1093.61,962.531 1146.2,962.531 "/>
   <rect id="_459940904" class="fil3" x="1200.13" y="514.487" width="25.8957" height="1282.94"/>
   <polygon id="_459940736" class="fil3" points="1200.13,514.487 1226.02,514.487 621.44,251.248 595.544,251.248 "/>
  </g>
  <rect class="fil4" width="2048" height="2048"/>
 </g>
</svg>
